<?xml version="1.0" encoding="iso-8859-1"?>
<!-- Generator: Adobe Illustrator 19.1.0, SVG Export Plug-In . SVG Version: 6.00 Build 0)  -->
<svg version="1.1" id="Capa_1" xmlns="http://www.w3.org/2000/svg" xmlns:xlink="http://www.w3.org/1999/xlink" x="0px" y="0px"
	 viewBox="0 0 63.546 63.546" style="enable-background:new 0 0 63.546 63.546;" xml:space="preserve">
<g>
	<g id="group-28svg">
		<path id="path-1_20_" style="fill:#53ECF4;" d="M57.206,40.117c1.892,16.139-5.976,23.429-22.214,23.429
			S11.727,56.21,13.977,40.117C16.372,22.982,34.992,3.503,34.992,3.503S55.303,23.881,57.206,40.117z"/>
		<path id="path-2_20_" d="M28.992,63.045c-8.877,0-15.02-2.103-18.78-6.429c-3.673-4.225-4.89-10.345-3.721-18.708
			C8.926,20.494,27.135,1.273,27.908,0.464c0.28-0.292,0.665-0.46,1.069-0.463c0.413-0.014,0.793,0.154,1.078,0.44
			c0.844,0.848,20.699,20.937,22.641,37.5c0.942,8.033-0.474,14.235-4.208,18.436C44.554,60.801,37.995,63.045,28.992,63.045z
			 M29.018,3.696C25.082,8.091,11.437,24.2,9.462,38.324c-1.042,7.452-0.056,12.791,3.013,16.322
			c3.157,3.632,8.559,5.397,16.517,5.397c8.11,0,13.914-1.905,17.253-5.661c3.141-3.533,4.309-8.947,3.471-16.092
			C48.145,24.88,33.209,8.156,29.018,3.696z"/>
	</g>
</g>
<g>
</g>
<g>
</g>
<g>
</g>
<g>
</g>
<g>
</g>
<g>
</g>
<g>
</g>
<g>
</g>
<g>
</g>
<g>
</g>
<g>
</g>
<g>
</g>
<g>
</g>
<g>
</g>
<g>
</g>
</svg>
